<svg width="30" height="31" viewBox="0 0 30 31" fill="none" xmlns="http://www.w3.org/2000/svg">
<path d="M18 12.8965C18 11.7919 18.8954 10.8965 20 10.8965H28C29.1046 10.8965 30 11.7919 30 12.8965V28.5517C30 29.6562 29.1046 30.5517 28 30.5517H20C18.8954 30.5517 18 29.6562 18 28.5517V12.8965Z" fill="url(#paint0_linear_50_276)"/>
<path d="M0 2.55176C0 1.44719 0.89543 0.551758 2 0.551758H19.9111C21.0157 0.551758 21.9111 1.44719 21.9111 2.55176V28.5598C21.9111 29.6599 21.0193 30.5518 19.9192 30.5518V30.5518C8.91812 30.5518 0 21.6336 0 10.6326V2.55176Z" fill="url(#paint1_linear_50_276)"/>
<path d="M7 6.7586C7 6.18727 7.46315 5.72412 8.03448 5.72412H16.9655C17.5368 5.72412 18 6.18727 18 6.7586V6.7586C18 7.32993 17.5368 7.79309 16.9655 7.79309H8.03448C7.46315 7.79309 7 7.32993 7 6.7586V6.7586Z" fill="white"/>
<path d="M7 12.9656C7 12.3943 7.46315 11.9312 8.03448 11.9312H16.9655C17.5368 11.9312 18 12.3943 18 12.9656V12.9656C18 13.537 17.5368 14.0001 16.9655 14.0001H8.03448C7.46315 14.0001 7 13.537 7 12.9656V12.9656Z" fill="white"/>
<path d="M7 19.1724C7 18.6011 7.46315 18.1379 8.03448 18.1379H16.9655C17.5368 18.1379 18 18.6011 18 19.1724V19.1724C18 19.7438 17.5368 20.2069 16.9655 20.2069H8.03448C7.46315 20.2069 7 19.7438 7 19.1724V19.1724Z" fill="white"/>
<defs>
<linearGradient id="paint0_linear_50_276" x1="24" y1="10.8965" x2="24" y2="30.5517" gradientUnits="userSpaceOnUse">
<stop stop-color="#FF8989"/>
<stop offset="1" stop-color="#FF6969"/>
</linearGradient>
<linearGradient id="paint1_linear_50_276" x1="10.9556" y1="0.551758" x2="10.9556" y2="30.5518" gradientUnits="userSpaceOnUse">
<stop stop-color="#4647FF"/>
<stop offset="1" stop-color="#9899FF"/>
</linearGradient>
</defs>
</svg>
