<svg width="60" height="60" viewBox="0 0 60 60" fill="none" xmlns="http://www.w3.org/2000/svg">
<circle cx="30" cy="30" r="30" fill="white"/>
<rect x="17" y="18.9473" width="25" height="26.3158" rx="2" fill="url(#paint0_linear_111_20)"/>
<path d="M42 27.3684V20.7257C42 19.6212 41.1046 18.7257 40 18.7257H38.9512V15.7368C38.9512 15.1845 38.5035 14.7368 37.9512 14.7368H37.5122C36.9599 14.7368 36.5122 15.1845 36.5122 15.7368V18.7257H22.4878V15.7368C22.4878 15.1845 22.0401 14.7368 21.4878 14.7368H21.0488C20.4965 14.7368 20.0488 15.1845 20.0488 15.7368V18.7257H19C17.8954 18.7257 17 19.6212 17 20.7257V27.3684H42Z" fill="url(#paint1_linear_111_20)"/>
<rect x="21" y="30.5264" width="3" height="3.15789" fill="white"/>
<rect x="21" y="37.8948" width="3" height="3.15789" fill="white"/>
<rect x="28" y="30.5264" width="3" height="3.15789" fill="white"/>
<rect x="28" y="37.8948" width="3" height="3.15789" fill="white"/>
<rect x="35" y="30.5264" width="3" height="3.15789" fill="white"/>
<rect x="35" y="37.8948" width="3" height="3.15789" fill="white"/>
<defs>
<linearGradient id="paint0_linear_111_20" x1="17" y1="26.842" x2="42.9573" y2="46.0764" gradientUnits="userSpaceOnUse">
<stop stop-color="#8889FF"/>
<stop offset="1" stop-color="#3C3DFF"/>
</linearGradient>
<linearGradient id="paint1_linear_111_20" x1="17" y1="14.7368" x2="42.4649" y2="26.3488" gradientUnits="userSpaceOnUse">
<stop stop-color="#FFA7A7"/>
<stop offset="1" stop-color="#FF6C6C"/>
</linearGradient>
</defs>
</svg>
