<svg width="60" height="60" viewBox="0 0 60 60" fill="none" xmlns="http://www.w3.org/2000/svg">
<circle cx="30" cy="30" r="30" fill="white"/>
<path d="M31 28.8965C31 27.7919 31.8954 26.8965 33 26.8965H41C42.1046 26.8965 43 27.7919 43 28.8965V44.5517C43 45.6562 42.1046 46.5517 41 46.5517H33C31.8954 46.5517 31 45.6562 31 44.5517V28.8965Z" fill="url(#paint0_linear_111_11)"/>
<path d="M13 18.5518C13 17.4472 13.8954 16.5518 15 16.5518H32.9111C34.0157 16.5518 34.9111 17.4472 34.9111 18.5518V44.5598C34.9111 45.6599 34.0193 46.5518 32.9192 46.5518V46.5518C21.9181 46.5518 13 37.6336 13 26.6326V18.5518Z" fill="url(#paint1_linear_111_11)"/>
<path d="M20 22.7586C20 22.1873 20.4632 21.7241 21.0345 21.7241H29.9655C30.5368 21.7241 31 22.1873 31 22.7586V22.7586C31 23.3299 30.5368 23.7931 29.9655 23.7931H21.0345C20.4632 23.7931 20 23.3299 20 22.7586V22.7586Z" fill="white"/>
<path d="M20 28.9656C20 28.3943 20.4632 27.9312 21.0345 27.9312H29.9655C30.5368 27.9312 31 28.3943 31 28.9656V28.9656C31 29.537 30.5368 30.0001 29.9655 30.0001H21.0345C20.4632 30.0001 20 29.537 20 28.9656V28.9656Z" fill="white"/>
<path d="M20 35.1724C20 34.6011 20.4632 34.1379 21.0345 34.1379H29.9655C30.5368 34.1379 31 34.6011 31 35.1724V35.1724C31 35.7438 30.5368 36.2069 29.9655 36.2069H21.0345C20.4632 36.2069 20 35.7438 20 35.1724V35.1724Z" fill="white"/>
<defs>
<linearGradient id="paint0_linear_111_11" x1="37" y1="26.8965" x2="37" y2="46.5517" gradientUnits="userSpaceOnUse">
<stop stop-color="#FF8989"/>
<stop offset="1" stop-color="#FF6969"/>
</linearGradient>
<linearGradient id="paint1_linear_111_11" x1="23.9556" y1="16.5518" x2="23.9556" y2="46.5518" gradientUnits="userSpaceOnUse">
<stop stop-color="#4647FF"/>
<stop offset="1" stop-color="#9899FF"/>
</linearGradient>
</defs>
</svg>
