<svg width="934" height="934" viewBox="0 0 934 934" fill="none" xmlns="http://www.w3.org/2000/svg">
<path d="M568.575 426.199H234.068C211.667 426.199 193 444.865 193 467.267C193 489.668 211.667 508.335 234.068 508.335H569.321C591.723 508.335 610.389 489.668 610.389 467.267C609.639 444.121 591.723 426.199 568.577 426.199H568.575Z" fill="black"/>
<path d="M699.241 191H234.068C211.667 191 193 209.667 193 232.068C193 254.469 211.667 273.136 234.068 273.136H699.988C722.389 273.136 741.056 254.469 741.056 232.068C740.306 209.667 722.389 191 699.244 191H699.241Z" fill="black"/>
<path d="M699.241 660.652H234.068C211.667 660.652 193 679.319 193 701.72C193 724.121 211.667 742.788 234.068 742.788H699.988C722.389 742.788 741.056 724.121 741.056 701.72C740.306 679.319 722.389 660.652 699.244 660.652H699.241Z" fill="black"/>
</svg>
