<svg width="168" height="168" viewBox="0 0 168 168" fill="none" xmlns="http://www.w3.org/2000/svg">
<path d="M37.9321 137.947C59.3817 137.947 76.318 120.556 76.318 99.1062C76.3181 77.6566 58.7016 60.2656 37.252 60.2656C37.0374 60.2656 36.7138 60.2947 36.4992 60.2984C44.9801 53.5449 55.6322 49.4754 67.2916 49.4754C72.6558 49.4754 76.9727 45.1258 76.9727 39.7652C76.9727 34.4047 73.5214 30.0551 68.1572 30.0551C30.0839 30.0587 0.00068574 61.033 0.000682412 99.1062C0.000682411 99.1135 0.00068241 99.1208 0.000682409 99.1317C0.000680535 120.57 16.4897 137.947 37.9321 137.947Z" fill="#FAD1E1"/>
<path d="M128.905 137.947C150.354 137.947 167.32 120.556 167.32 99.1062C167.32 77.6566 149.718 60.2657 128.265 60.2657C128.05 60.2657 127.734 60.2947 127.519 60.2984C136 53.5449 146.656 49.4754 158.315 49.4754C163.68 49.4754 168 45.1258 168 39.7653C168 34.4047 164.494 30.0551 159.13 30.0551C121.057 30.0587 90.9189 61.033 90.9189 99.1062C90.9189 99.1135 90.9189 99.1208 90.9189 99.1317C90.9189 120.57 107.463 137.947 128.905 137.947Z" fill="#FAD1E1"/>
</svg>
