<?xml version="1.0" standalone="no"?>
<!DOCTYPE svg PUBLIC "-//W3C//DTD SVG 20010904//EN"
 "http://www.w3.org/TR/2001/REC-SVG-20010904/DTD/svg10.dtd">
<svg version="1.0" xmlns="http://www.w3.org/2000/svg"
 width="1280.000000pt" height="1280.000000pt" viewBox="0 0 1280.000000 1280.000000"
 preserveAspectRatio="xMidYMid meet">
<metadata>
Created by potrace 1.14, written by Peter Selinger 2001-2017
</metadata>
<g transform="translate(0.000000,1280.000000) scale(0.100000,-0.100000)"
fill="#000000" stroke="none">
<path d="M7695 8180 c-43 -10 -134 -24 -201 -30 -67 -7 -127 -16 -134 -20 -23
-14 -2 -39 42 -50 112 -28 166 -73 192 -160 20 -68 35 -1310 17 -1435 -20
-140 -55 -182 -169 -200 -54 -9 -67 -15 -67 -29 0 -18 18 -19 338 -21 195 -1
340 2 344 8 10 16 -17 31 -80 44 -74 15 -105 36 -132 89 -19 38 -20 61 -23
749 -1 391 -2 792 -2 893 l0 182 -22 -1 c-13 -1 -59 -10 -103 -19z"/>
<path d="M6085 8154 c-162 -25 -304 -74 -440 -153 -111 -64 -276 -228 -338
-335 -116 -200 -159 -433 -122 -661 32 -197 106 -342 247 -484 285 -287 693
-381 1100 -255 103 32 376 165 409 200 24 25 24 29 29 262 4 160 10 244 18
259 7 13 29 34 49 48 32 21 64 31 169 51 12 2 25 11 28 20 15 40 2 41 -421 37
-225 -2 -418 -6 -430 -9 -28 -5 -31 -39 -5 -52 9 -5 53 -12 97 -14 179 -10
225 -88 226 -376 0 -175 -4 -187 -92 -266 -138 -124 -271 -164 -448 -137 -161
25 -276 84 -391 200 -177 179 -270 412 -270 682 0 187 35 337 116 502 55 111
98 171 180 246 195 178 458 220 701 111 173 -78 314 -222 417 -427 25 -51 52
-93 60 -93 31 0 38 26 26 107 -6 42 -17 149 -25 235 -19 209 -29 227 -92 166
-46 -44 -84 -41 -203 15 -175 82 -302 116 -455 122 -60 2 -123 1 -140 -1z"/>
<path d="M2422 8117 c-17 -20 1 -34 69 -48 101 -21 166 -69 201 -146 40 -89
40 -148 14 -1193 -9 -331 -52 -413 -235 -443 -72 -13 -103 -29 -86 -46 6 -5
155 -7 358 -4 288 5 350 8 354 20 10 24 -12 35 -93 44 -102 11 -146 40 -182
117 l-27 57 4 555 c3 598 10 810 26 812 5 0 22 -20 37 -46 77 -131 640 -1270
705 -1426 19 -47 40 -90 45 -97 25 -31 43 2 160 287 81 199 631 1295 649 1295
10 0 14 -13 12 -45 0 -25 -8 -263 -17 -530 -25 -741 -30 -829 -54 -883 -26
-58 -53 -75 -150 -96 -65 -13 -77 -19 -77 -36 0 -20 7 -20 390 -20 377 0 390
1 390 19 0 15 -14 22 -70 36 -102 24 -133 43 -157 98 -20 45 -21 57 -15 602 7
707 21 896 74 976 21 33 89 63 174 77 63 10 74 15 74 32 0 20 -7 20 -299 20
l-299 0 -79 -180 c-120 -276 -210 -469 -333 -715 -104 -208 -146 -288 -235
-444 l-33 -58 -34 58 c-19 33 -72 138 -119 234 -47 96 -189 385 -317 642
l-232 466 -45 6 c-25 3 -155 8 -290 12 -210 5 -247 4 -258 -9z"/>
<path d="M1624 7456 c-68 -22 -156 -74 -221 -131 -276 -247 -299 -697 -48
-950 177 -178 437 -215 680 -96 110 54 208 154 192 195 -10 26 -33 19 -83 -25
-105 -91 -201 -131 -314 -131 -132 0 -235 54 -314 166 -76 106 -106 218 -98
369 l3 57 133 0 c248 0 675 13 688 21 18 11 14 110 -7 181 -42 145 -181 283
-340 338 -68 23 -205 26 -271 6z m240 -61 c50 -24 115 -92 139 -145 25 -56 33
-165 15 -199 -26 -48 -70 -64 -202 -70 -66 -3 -182 -4 -256 -1 l-135 5 3 30
c11 99 63 232 113 289 36 41 97 84 146 102 46 17 128 12 177 -11z"/>
<path d="M8514 7459 c-2 -4 7 -32 20 -61 14 -29 40 -92 58 -140 23 -60 38 -88
49 -88 18 0 229 203 229 220 0 5 -13 10 -28 10 -15 0 -32 4 -37 9 -6 5 -28 11
-50 14 -22 4 -62 11 -90 16 -118 24 -146 27 -151 20z"/>
<path d="M8440 7443 c-8 -4 -22 -14 -31 -25 -9 -10 -20 -18 -23 -18 -4 0 -13
-6 -21 -12 -30 -29 -56 -48 -65 -48 -6 0 -10 -4 -10 -10 0 -5 -6 -10 -13 -10
-7 0 -19 -9 -27 -20 -8 -11 -20 -20 -27 -20 -7 0 -13 -4 -13 -10 0 -5 -7 -10
-16 -10 -36 0 -4 -26 42 -34 27 -4 58 -12 69 -16 20 -8 56 -16 125 -26 19 -3
44 -9 55 -14 29 -12 105 -22 105 -13 0 13 -50 144 -83 220 -32 71 -37 77 -67
66z"/>
<path d="M11262 7443 c-53 -10 -29 -63 29 -63 40 0 79 -35 79 -72 0 -35 -51
-210 -108 -373 -71 -201 -137 -375 -142 -375 -7 0 -231 521 -270 628 -47 130
-42 151 53 191 35 15 48 26 45 38 -3 16 -24 18 -238 21 -129 1 -245 0 -257 -3
-16 -4 -23 -13 -23 -30 0 -20 6 -25 38 -30 60 -10 80 -22 109 -66 25 -38 28
-52 27 -118 0 -68 -6 -93 -61 -236 -94 -250 -165 -417 -173 -408 -4 4 -48 105
-98 223 -170 405 -209 512 -198 555 6 23 49 45 117 59 27 6 44 30 33 47 -3 5
-121 9 -268 9 -205 0 -266 -3 -281 -14 -27 -19 -13 -42 32 -51 74 -14 90 -34
162 -200 24 -55 52 -120 64 -145 56 -126 158 -369 239 -570 49 -124 96 -231
103 -239 19 -20 39 -2 66 58 37 83 287 715 301 759 7 23 16 42 19 42 4 0 20
-37 37 -83 16 -46 91 -228 166 -404 75 -176 136 -324 136 -329 0 -5 9 -20 20
-34 17 -22 21 -23 33 -10 8 8 68 159 134 335 121 321 143 384 203 570 52 162
81 204 166 244 22 11 46 27 54 36 12 15 12 19 -5 31 -14 11 -55 14 -169 13
-83 -1 -161 -4 -174 -6z"/>
<path d="M8960 7360 c0 -6 8 -29 19 -53 10 -23 26 -62 36 -87 54 -136 58 -145
73 -145 17 0 223 207 219 219 -2 6 -14 12 -28 14 -13 2 -83 16 -155 32 -144
33 -164 35 -164 20z"/>
<path d="M8797 7257 c-59 -57 -107 -110 -107 -119 0 -11 13 -17 43 -21 23 -3
85 -16 137 -27 170 -39 184 -38 161 8 -5 9 -18 41 -30 70 -11 28 -30 73 -40
100 -11 26 -23 57 -26 70 -4 12 -12 22 -18 22 -7 0 -61 -46 -120 -103z"/>
<path d="M9311 7233 c-22 -21 -71 -68 -110 -106 -39 -37 -71 -73 -71 -81 0 -9
30 -19 93 -30 50 -10 108 -22 127 -26 37 -9 107 -25 153 -35 26 -5 28 -4 22
17 -4 13 -17 39 -30 58 -12 19 -38 64 -57 100 -45 84 -79 140 -84 140 -3 0
-22 -17 -43 -37z"/>
<path d="M8190 7169 c0 -12 6 -30 14 -38 7 -9 53 -95 102 -191 49 -96 92 -177
95 -180 4 -3 42 -75 85 -160 42 -85 81 -156 86 -158 4 -2 8 -10 8 -18 0 -20
43 -103 54 -104 5 0 6 63 2 153 -3 83 -11 259 -16 390 -5 130 -12 242 -15 247
-3 6 -22 10 -42 10 -20 0 -50 4 -67 9 -17 6 -58 15 -91 21 -33 6 -73 15 -90
20 -16 5 -51 12 -77 15 -45 7 -48 6 -48 -16z"/>
<path d="M8647 7083 c-3 -5 -1 -35 3 -68 4 -33 13 -193 20 -355 6 -162 13
-301 16 -308 5 -16 44 2 44 20 0 15 43 102 53 106 4 2 7 8 7 13 0 11 34 84 50
109 6 8 24 46 41 85 18 38 38 75 45 83 8 7 14 19 14 25 0 15 83 181 93 185 19
9 5 40 -20 45 -16 2 -98 19 -183 36 -168 34 -177 35 -183 24z"/>
<path d="M8917 6662 c-92 -185 -168 -340 -168 -344 1 -10 33 3 46 17 6 7 39
34 75 61 36 27 72 57 81 67 9 9 20 17 23 17 4 0 13 6 21 13 24 23 55 47 61 47
2 0 15 9 27 21 12 12 47 40 77 63 30 22 57 43 60 47 19 21 210 169 219 169 6
0 11 6 11 14 0 8 9 18 20 21 11 3 20 15 20 25 0 14 -10 21 -37 26 -21 3 -83
16 -138 29 -133 30 -204 45 -218 45 -7 0 -88 -152 -180 -338z"/>
<path d="M8574 5779 c-105 -19 -206 -98 -252 -197 -24 -51 -27 -69 -27 -162 0
-95 3 -111 28 -162 32 -65 103 -134 174 -169 41 -20 63 -24 153 -24 92 0 112
3 160 26 57 27 123 86 152 135 l16 29 -36 -1 c-29 -1 -46 -10 -81 -44 -24 -23
-68 -53 -98 -67 -48 -22 -65 -25 -122 -20 -89 8 -134 28 -196 91 -92 92 -114
223 -55 342 51 104 145 164 260 165 87 2 150 -23 207 -82 38 -39 54 -49 80
-49 18 0 33 4 33 8 0 19 -62 93 -101 121 -74 54 -193 78 -295 60z"/>
<path d="M3995 5770 c-15 -5 -108 -212 -275 -607 l-39 -93 37 0 37 0 50 118
50 117 165 2 165 1 50 -119 50 -119 39 0 c26 0 37 4 33 13 -48 117 -291 675
-298 683 -11 13 -35 14 -64 4z m50 -122 c9 -24 22 -54 28 -68 6 -14 11 -27 12
-30 1 -3 8 -18 15 -35 7 -16 14 -32 15 -35 1 -3 9 -22 18 -43 32 -74 38 -71
-116 -71 -75 -1 -137 0 -137 1 0 1 5 14 12 30 6 15 12 30 13 33 4 13 27 67 50
116 14 30 25 61 25 69 0 8 5 15 11 15 6 0 9 7 5 15 -3 8 -1 15 4 15 6 0 10 7
10 15 0 29 18 15 35 -27z"/>
<path d="M5498 5772 c-20 -4 -20 -6 -19 -109 l1 -73 -58 0 c-58 0 -58 0 -58
-30 0 -30 0 -30 57 -30 l58 0 0 -187 c-1 -301 -4 -273 34 -273 l33 0 -1 213
c0 116 1 220 3 229 3 13 17 18 60 20 53 3 57 5 57 28 0 23 -4 25 -58 28 -64 3
-58 -8 -61 116 -1 72 -6 78 -48 68z"/>
<path d="M5743 5767 c-8 -12 -12 -662 -5 -684 2 -7 18 -13 36 -13 l31 0 1 173
c0 150 3 178 20 212 30 60 64 80 139 80 75 0 109 -20 140 -81 17 -33 20 -62
22 -204 1 -91 2 -168 3 -172 0 -5 15 -8 33 -8 l33 0 -2 183 c-2 197 -13 245
-65 294 -77 71 -231 72 -304 3 l-21 -20 1 120 c1 78 -3 120 -9 121 -6 0 -19 2
-28 4 -10 2 -21 -2 -25 -8z"/>
<path d="M6983 5766 c-3 -5 -6 -46 -6 -92 l0 -84 -56 0 c-56 0 -57 0 -59 -30
l-2 -30 59 0 58 0 -1 -230 -1 -231 35 3 35 3 0 225 0 225 56 3 c51 3 57 5 61
27 7 33 3 35 -59 35 -29 0 -54 5 -54 10 -1 6 -2 47 -3 92 l-1 81 -28 1 c-16 1
-31 -2 -34 -8z"/>
<path d="M10340 5683 l0 -93 -55 0 c-54 0 -55 0 -55 -30 0 -30 1 -30 55 -30
l55 0 0 -230 0 -230 35 0 35 0 0 230 0 230 60 0 60 0 0 30 0 30 -60 0 -60 0 0
90 c0 50 -3 90 -7 91 -5 0 -20 2 -35 3 l-28 2 0 -93z"/>
<path d="M7239 5768 c-1 -2 -3 -29 -4 -60 l-2 -58 34 0 c19 0 33 5 34 13 1 6
1 32 2 57 0 43 -1 45 -31 48 -18 2 -33 2 -33 0z"/>
<path d="M9283 5599 c-247 -44 -305 -378 -87 -505 54 -32 160 -43 217 -25 52
17 113 65 142 111 33 52 32 60 -7 60 -27 -1 -38 -8 -59 -39 -55 -78 -163 -102
-255 -54 -45 23 -91 83 -100 130 l-6 32 208 0 c115 0 222 0 238 1 28 0 28 0
21 48 -9 61 -39 130 -73 165 -56 59 -155 90 -239 76z m128 -70 c24 -12 105
-81 100 -86 -1 -2 3 -18 10 -34 8 -22 9 -33 2 -37 -9 -6 -351 -8 -385 -3 -9 1
-7 51 2 51 3 0 11 9 18 21 11 17 11 20 0 14 -7 -4 3 7 22 24 55 48 88 61 155
60 33 -1 67 -6 76 -10z"/>
<path d="M4545 5575 c-149 -77 -195 -271 -97 -405 34 -46 47 -56 107 -85 120
-59 260 -18 339 99 34 50 33 56 -8 56 -27 0 -38 -6 -51 -27 -61 -103 -215
-120 -307 -35 -35 34 -72 107 -62 124 3 4 30 7 62 7 31 -1 136 0 233 0 l177 1
-5 38 c-12 97 -59 177 -130 219 -38 22 -61 27 -127 30 -71 3 -87 1 -131 -22z
m205 -48 c8 -1 22 -10 31 -19 9 -10 21 -18 28 -18 6 0 10 -6 9 -12 -2 -7 3
-12 10 -10 6 1 12 -7 12 -18 0 -11 4 -20 8 -20 5 0 9 -6 9 -12 0 -7 4 -21 8
-30 4 -10 3 -18 -1 -19 -40 -5 -388 -3 -396 2 -6 4 -7 12 -2 20 5 8 9 19 10
24 4 20 31 65 37 59 3 -3 8 4 12 15 3 12 10 19 15 16 5 -3 13 3 19 12 6 10 11
15 11 11 0 -4 17 -1 37 6 25 9 51 10 83 4 25 -4 52 -9 60 -11z"/>
<path d="M5078 5583 c-71 -45 -88 -155 -32 -214 15 -16 37 -32 48 -35 109 -33
164 -86 151 -145 -8 -35 -56 -69 -96 -69 -36 0 -76 34 -84 70 -6 26 -11 30
-41 30 -41 0 -43 -14 -13 -77 29 -60 82 -87 158 -81 93 7 137 52 145 148 6 76
-20 109 -128 161 -72 35 -93 50 -101 72 -19 55 37 109 98 93 26 -6 62 -57 50
-70 -4 -3 11 -6 32 -6 l38 0 -6 36 c-11 65 -65 104 -144 104 -27 0 -60 -8 -75
-17z"/>
<path d="M6480 5588 c-108 -31 -180 -136 -180 -261 1 -188 181 -313 361 -252
49 17 108 66 139 117 27 44 26 48 -15 48 -28 0 -37 -5 -49 -29 -26 -49 -94
-86 -166 -90 -86 -4 -184 72 -197 152 l-6 37 237 0 237 0 -7 48 c-14 107 -92
206 -182 232 -45 12 -125 12 -172 -2z m199 -79 c11 -11 25 -19 30 -19 5 0 13
-9 16 -20 3 -11 10 -20 15 -20 7 0 24 -49 25 -74 0 -6 -83 -10 -201 -10 l-202
-1 9 23 c5 12 6 22 3 22 -3 0 4 13 15 29 11 15 17 32 13 36 -4 5 -1 5 6 1 6
-4 12 -3 12 3 0 15 63 50 106 59 49 10 127 -5 153 -29z"/>
<path d="M7600 5591 c-47 -15 -85 -39 -122 -78 -119 -125 -86 -329 69 -419 54
-33 159 -43 228 -24 50 14 120 70 148 119 l18 31 -40 0 c-31 0 -44 -6 -64 -29
-101 -121 -305 -75 -351 79 -40 135 58 270 198 270 54 0 135 -40 161 -80 16
-24 27 -30 58 -30 20 0 37 4 37 9 0 22 -69 98 -113 125 -40 25 -60 30 -125 32
-42 2 -88 0 -102 -5z"/>
<path d="M9845 5583 c-16 -8 -40 -25 -52 -36 l-23 -20 0 31 c0 30 -2 32 -37
32 l-38 0 2 -248 c1 -136 2 -253 2 -259 1 -8 15 -13 36 -13 l35 0 0 178 c0
194 7 224 63 266 40 29 117 33 169 7 72 -34 81 -64 86 -273 l4 -178 33 0 33 0
-2 183 c-2 177 -3 185 -29 238 -36 75 -96 109 -188 109 -38 -1 -76 -7 -94 -17z"/>
<path d="M10744 5590 c-11 -4 -33 -22 -47 -40 l-27 -32 0 36 c0 34 -2 36 -34
36 l-35 0 0 -260 0 -260 35 0 34 0 0 170 c0 222 13 256 110 286 29 9 36 16 38
42 3 29 1 32 -25 31 -15 0 -37 -4 -49 -9z"/>
<path d="M10995 5576 c-52 -24 -102 -73 -132 -129 -12 -23 -17 -56 -18 -117 0
-78 3 -89 31 -135 59 -97 145 -140 260 -133 75 5 142 42 191 106 43 57 43 72
-2 72 -19 0 -35 -4 -35 -9 0 -21 -53 -70 -97 -91 -112 -53 -255 18 -279 138
l-6 30 233 1 c128 1 235 4 238 7 3 2 -1 32 -8 65 -28 139 -123 218 -261 219
-47 0 -79 -7 -115 -24z m187 -40 c5 3 8 1 8 -5 0 -5 9 -12 19 -16 25 -8 81
-65 81 -82 0 -7 5 -13 12 -13 6 0 8 -3 5 -6 -3 -4 -2 -15 4 -25 5 -11 6 -19 2
-20 -4 -1 -97 -2 -206 -3 l-198 -1 6 25 c4 13 7 29 8 35 3 13 89 106 95 101 2
-2 20 1 40 8 22 8 51 10 76 5 23 -4 44 -5 48 -3z"/>
<path d="M7234 5330 l-1 -260 34 0 c19 0 33 5 34 13 1 18 1 436 0 475 -1 29
-4 32 -34 32 l-33 0 0 -260z"/>
<path d="M1270 5330 l0 -127 290 0 290 0 0 129 0 129 -290 -2 -290 -2 0 -127z"/>
<path d="M1960 5446 c-13 -13 -13 -223 0 -231 5 -3 345 -7 755 -8 l745 -2 0
121 0 122 -27 5 c-56 10 -1462 4 -1473 -7z"/>
<path d="M9130 4810 c0 -118 2 -140 15 -140 8 0 15 5 15 10 0 7 6 7 19 0 59
-31 111 11 111 89 -1 76 -45 112 -102 84 l-28 -14 0 56 c0 42 -3 55 -15 55
-13 0 -15 -22 -15 -140z m114 14 c36 -35 10 -139 -32 -132 -55 9 -71 110 -22
135 32 16 35 16 54 -3z"/>
<path d="M9737 4943 c-3 -4 -4 -29 -4 -56 2 -45 -5 -58 -18 -37 -3 6 -21 10
-39 10 -49 0 -70 -29 -70 -95 0 -81 45 -117 106 -84 15 8 22 8 28 -1 19 -30
26 8 26 131 -1 91 -5 134 -13 136 -6 2 -13 0 -16 -4z m-34 -114 c30 -16 33
-23 32 -65 -1 -68 -74 -95 -96 -36 -12 32 -1 90 20 102 20 12 18 12 44 -1z"/>
<path d="M10776 4823 c1 -155 1 -156 17 -151 8 3 12 38 13 124 2 130 -1 154
-19 154 -9 0 -12 -35 -11 -127z"/>
<path d="M10862 4918 c7 -19 38 -22 38 -4 0 10 -9 16 -21 16 -12 0 -19 -5 -17
-12z"/>
<path d="M9326 4835 c3 -14 19 -58 34 -97 26 -66 27 -74 14 -104 -13 -31 -13
-34 3 -34 14 0 27 26 57 108 49 136 52 152 34 152 -9 0 -23 -27 -37 -70 -12
-39 -26 -68 -32 -65 -5 4 -9 10 -9 15 0 27 -43 120 -56 120 -10 0 -13 -7 -8
-25z"/>
<path d="M9829 4850 c0 -5 -1 -44 -1 -85 0 -98 0 -95 17 -95 12 0 15 14 15 68
0 73 10 92 47 92 14 0 23 6 23 15 0 18 -41 20 -57 4 -8 -8 -13 -8 -17 0 -9 14
-26 14 -27 1z"/>
<path d="M10120 4765 c0 -78 3 -95 15 -95 12 0 15 14 15 70 0 64 2 71 26 86
39 26 56 3 58 -82 1 -44 5 -69 14 -72 14 -4 14 -5 16 68 2 60 8 75 36 90 33
18 50 -12 50 -91 0 -55 3 -69 15 -69 22 0 22 152 -1 174 -20 20 -68 21 -84 1
-12 -14 -15 -14 -30 0 -19 17 -53 19 -81 5 -13 -7 -19 -7 -19 0 0 5 -7 10 -15
10 -12 0 -15 -17 -15 -95z"/>
<path d="M10453 4853 c-7 -2 -13 -11 -13 -19 0 -11 6 -11 27 -3 41 15 73 4 73
-26 0 -22 -5 -25 -33 -25 -63 0 -96 -49 -63 -92 15 -20 57 -23 87 -8 13 7 19
7 19 0 0 -5 5 -10 10 -10 15 0 13 163 -2 178 -12 12 -81 15 -105 5z m89 -118
c-4 -24 -31 -47 -51 -43 -8 2 -19 11 -25 21 -9 15 -7 21 9 33 29 21 71 15 67
-11z"/>
<path d="M10634 4771 c1 -49 5 -93 9 -97 14 -14 24 15 22 64 -3 57 16 92 50
92 16 0 25 6 25 15 0 18 -41 20 -59 3 -11 -10 -14 -10 -18 0 -3 6 -10 12 -17
12 -9 0 -12 -25 -12 -89z"/>
<path d="M10868 4808 c-5 -86 1 -138 18 -138 11 0 14 19 13 95 0 72 -4 95 -14
95 -9 0 -14 -17 -17 -52z"/>
<path d="M10960 4765 c0 -78 3 -95 15 -95 12 0 15 14 15 69 0 62 2 70 25 85
30 20 30 20 49 0 12 -11 16 -35 16 -85 0 -55 3 -69 15 -69 22 0 22 152 -1 174
-18 18 -56 21 -85 6 -13 -7 -19 -7 -19 0 0 5 -7 10 -15 10 -12 0 -15 -17 -15
-95z"/>
<path d="M11183 4853 c-7 -2 -13 -11 -13 -19 0 -11 6 -11 27 -3 41 15 73 4 73
-26 0 -22 -5 -25 -33 -25 -64 0 -100 -55 -61 -94 17 -18 61 -21 84 -6 9 6 17
5 21 -2 4 -6 11 -8 16 -5 13 8 6 156 -8 173 -11 13 -80 18 -106 7z m89 -118
c-7 -42 -54 -57 -75 -23 -16 25 9 50 47 46 25 -2 30 -7 28 -23z"/>
<path d="M9930 4700 c-9 -16 -8 -22 5 -26 21 -8 39 10 32 30 -9 22 -24 20 -37
-4z"/>
</g>
</svg>
